# Blender v2.79 (sub 0) OBJ File: 'ImperialStarDestroyer.blend'
# www.blender.org
mtllib BridgeShield.mtl
o Icosphere
v -0.000000 0.065548 -0.000000
v 0.028383 0.032774 0.049161
v 0.000000 0.032774 0.056766
v 0.008482 0.056766 0.031657
v -0.008482 0.056766 0.031657
v 0.000486 0.033387 0.058579
v 0.017451 0.000614 0.065127
v 0.028869 0.033387 0.050974
v -0.008482 0.058194 0.033021
v 0.000000 0.034201 0.058130
v 0.008482 0.058194 0.033021
v -0.000000 -0.065548 -0.000000
v 0.028383 -0.032774 0.049161
v 0.000000 -0.032774 0.056766
v 0.046349 0.000000 0.046349
v 0.008482 -0.056766 0.031657
v 0.016965 0.000000 0.063314
v -0.008482 -0.056766 0.031657
v 0.000486 -0.033387 0.058579
v 0.017451 -0.000614 0.065127
v 0.028869 -0.033387 0.050974
v -0.008482 -0.058194 0.033021
v 0.000000 -0.034201 0.058130
v 0.008482 -0.058194 0.033021
v 0.000000 0.065548 -0.000000
v 0.000000 0.032774 0.056766
v -0.028383 0.032774 0.049161
v -0.008482 0.056766 0.031657
v -0.023175 0.056766 0.023175
v -0.028869 0.033387 0.050974
v -0.017451 0.000614 0.065127
v -0.000486 0.033387 0.058579
v -0.023857 0.058194 0.024356
v -0.029065 0.034201 0.050342
v -0.009165 0.058194 0.032838
v 0.000000 -0.065548 -0.000000
v 0.000000 -0.032774 0.056766
v -0.028383 -0.032774 0.049161
v 0.016965 0.000000 0.063314
v -0.008482 -0.056766 0.031657
v -0.016965 0.000000 0.063314
v -0.023175 -0.056766 0.023175
v -0.028869 -0.033387 0.050974
v -0.017451 -0.000614 0.065127
v -0.000486 -0.033387 0.058579
v -0.023857 -0.058194 0.024356
v -0.029065 -0.034201 0.050342
v -0.009165 -0.058194 0.032838
v 0.000000 0.065548 -0.000000
v -0.028383 0.032774 0.049161
v -0.049161 0.032774 0.028383
v -0.023175 0.056766 0.023175
v -0.031657 0.056766 0.008482
v -0.050488 0.033387 0.029710
v -0.047676 0.000614 0.047676
v -0.029710 0.033387 0.050488
v -0.032838 0.058194 0.009165
v -0.050342 0.034201 0.029065
v -0.024356 0.058194 0.023857
v 0.000000 -0.065548 -0.000000
v -0.028383 -0.032774 0.049161
v -0.049161 -0.032774 0.028383
v -0.016965 0.000000 0.063314
v -0.023175 -0.056766 0.023175
v -0.046349 0.000000 0.046349
v -0.031657 -0.056766 0.008482
v -0.050488 -0.033387 0.029710
v -0.047676 -0.000614 0.047676
v -0.029710 -0.033387 0.050488
v -0.032838 -0.058194 0.009165
v -0.050342 -0.034201 0.029065
v -0.024356 -0.058194 0.023857
v 0.000000 0.065548 -0.000000
v -0.049161 0.032774 0.028383
v -0.056766 0.032774 0.000000
v -0.031657 0.056766 0.008482
v -0.031657 0.056766 -0.008482
v -0.058579 0.033387 0.000486
v -0.065127 0.000614 0.017451
v -0.050974 0.033387 0.028869
v -0.033021 0.058194 -0.008482
v -0.058130 0.034201 0.000000
v -0.033021 0.058194 0.008482
v 0.000000 -0.065548 -0.000000
v -0.049161 -0.032774 0.028383
v -0.056766 -0.032774 0.000000
v -0.046349 0.000000 0.046349
v -0.031657 -0.056766 0.008482
v -0.063314 0.000000 0.016965
v -0.031657 -0.056766 -0.008482
v -0.058579 -0.033387 0.000486
v -0.065127 -0.000614 0.017451
v -0.050974 -0.033387 0.028869
v -0.033021 -0.058194 -0.008482
v -0.058130 -0.034201 0.000000
v -0.033021 -0.058194 0.008482
v 0.000000 0.065548 0.000000
v -0.056766 0.032774 0.000000
v -0.049161 0.032774 -0.028383
v -0.031657 0.056766 -0.008482
v -0.023175 0.056766 -0.023175
v -0.050974 0.033387 -0.028869
v -0.065127 0.000614 -0.017451
v -0.058579 0.033387 -0.000486
v -0.024356 0.058194 -0.023857
v -0.050342 0.034201 -0.029065
v -0.032838 0.058194 -0.009165
v 0.000000 -0.065548 0.000000
v -0.056766 -0.032774 0.000000
v -0.049161 -0.032774 -0.028383
v -0.063314 0.000000 0.016965
v -0.031657 -0.056766 -0.008482
v -0.063314 0.000000 -0.016965
v -0.023175 -0.056766 -0.023175
v -0.050974 -0.033387 -0.028869
v -0.065127 -0.000614 -0.017451
v -0.058579 -0.033387 -0.000486
v -0.024356 -0.058194 -0.023857
v -0.050342 -0.034201 -0.029065
v -0.032838 -0.058194 -0.009165
v 0.000000 0.065548 0.000000
v -0.049161 0.032774 -0.028383
v -0.028383 0.032774 -0.049161
v -0.023175 0.056766 -0.023175
v -0.008482 0.056766 -0.031657
v -0.029710 0.033387 -0.050488
v -0.047676 0.000614 -0.047676
v -0.050488 0.033387 -0.029710
v -0.009165 0.058194 -0.032838
v -0.029065 0.034201 -0.050342
v -0.023857 0.058194 -0.024356
v 0.000000 -0.065548 0.000000
v -0.049161 -0.032774 -0.028383
v -0.028383 -0.032774 -0.049161
v -0.063314 0.000000 -0.016965
v -0.023175 -0.056766 -0.023175
v -0.046349 0.000000 -0.046349
v -0.008482 -0.056766 -0.031657
v -0.029710 -0.033387 -0.050488
v -0.047676 -0.000614 -0.047676
v -0.050488 -0.033387 -0.029710
v -0.009165 -0.058194 -0.032838
v -0.029065 -0.034201 -0.050342
v -0.023857 -0.058194 -0.024356
v 0.000000 0.065548 0.000000
v -0.028383 0.032774 -0.049161
v -0.000000 0.032774 -0.056766
v -0.008482 0.056766 -0.031657
v 0.008482 0.056766 -0.031657
v -0.000486 0.033387 -0.058579
v -0.017451 0.000614 -0.065127
v -0.028869 0.033387 -0.050974
v 0.008482 0.058194 -0.033021
v -0.000000 0.034201 -0.058130
v -0.008482 0.058194 -0.033021
v 0.000000 -0.065548 0.000000
v -0.028383 -0.032774 -0.049161
v -0.000000 -0.032774 -0.056766
v -0.046349 0.000000 -0.046349
v -0.008482 -0.056766 -0.031657
v -0.016965 0.000000 -0.063314
v 0.008482 -0.056766 -0.031657
v -0.000486 -0.033387 -0.058579
v -0.017451 -0.000614 -0.065127
v -0.028869 -0.033387 -0.050974
v 0.008482 -0.058194 -0.033021
v -0.000000 -0.034201 -0.058130
v -0.008482 -0.058194 -0.033021
v -0.000000 0.065548 0.000000
v -0.000000 0.032774 -0.056766
v 0.028383 0.032774 -0.049161
v 0.008482 0.056766 -0.031657
v 0.023175 0.056766 -0.023175
v 0.028869 0.033387 -0.050974
v 0.017451 0.000614 -0.065127
v 0.000486 0.033387 -0.058579
v 0.023857 0.058194 -0.024356
v 0.029065 0.034201 -0.050342
v 0.009165 0.058194 -0.032838
v -0.000000 -0.065548 0.000000
v -0.000000 -0.032774 -0.056766
v 0.028383 -0.032774 -0.049161
v -0.016965 0.000000 -0.063314
v 0.008482 -0.056766 -0.031657
v 0.016965 0.000000 -0.063314
v 0.023175 -0.056766 -0.023175
v 0.028869 -0.033387 -0.050974
v 0.017451 -0.000614 -0.065127
v 0.000486 -0.033387 -0.058579
v 0.023857 -0.058194 -0.024356
v 0.029065 -0.034201 -0.050342
v 0.009165 -0.058194 -0.032838
v -0.000000 0.065548 0.000000
v 0.028383 0.032774 -0.049161
v 0.049161 0.032774 -0.028383
v 0.023175 0.056766 -0.023175
v 0.031657 0.056766 -0.008482
v 0.050488 0.033387 -0.029710
v 0.047676 0.000614 -0.047676
v 0.029710 0.033387 -0.050488
v 0.032838 0.058194 -0.009165
v 0.050342 0.034201 -0.029065
v 0.024356 0.058194 -0.023857
v -0.000000 -0.065548 0.000000
v 0.028383 -0.032774 -0.049161
v 0.049161 -0.032774 -0.028383
v 0.016965 0.000000 -0.063314
v 0.023175 -0.056766 -0.023175
v 0.046349 0.000000 -0.046349
v 0.031657 -0.056766 -0.008482
v 0.050488 -0.033387 -0.029710
v 0.047676 -0.000614 -0.047676
v 0.029710 -0.033387 -0.050488
v 0.032838 -0.058194 -0.009165
v 0.050342 -0.034201 -0.029065
v 0.024356 -0.058194 -0.023857
v -0.000000 0.065548 0.000000
v 0.049161 0.032774 -0.028383
v 0.056766 0.032774 -0.000000
v 0.031657 0.056766 -0.008482
v 0.031657 0.056766 0.008482
v 0.058579 0.033387 -0.000486
v 0.065127 0.000614 -0.017451
v 0.050974 0.033387 -0.028869
v 0.033021 0.058194 0.008482
v 0.058130 0.034201 -0.000000
v 0.033021 0.058194 -0.008482
v -0.000000 -0.065548 0.000000
v 0.049161 -0.032774 -0.028383
v 0.056766 -0.032774 -0.000000
v 0.046349 0.000000 -0.046349
v 0.031657 -0.056766 -0.008482
v 0.063314 0.000000 -0.016965
v 0.031657 -0.056766 0.008482
v 0.058579 -0.033387 -0.000486
v 0.065127 -0.000614 -0.017451
v 0.050974 -0.033387 -0.028869
v 0.033021 -0.058194 0.008482
v 0.058130 -0.034201 -0.000000
v 0.033021 -0.058194 -0.008482
v -0.000000 0.065548 -0.000000
v 0.056766 0.032774 -0.000000
v 0.049161 0.032774 0.028383
v 0.031657 0.056766 0.008482
v 0.023175 0.056766 0.023175
v 0.050974 0.033387 0.028869
v 0.065127 0.000614 0.017451
v 0.058579 0.033387 0.000486
v 0.024356 0.058194 0.023857
v 0.050342 0.034201 0.029065
v 0.032838 0.058194 0.009165
v -0.000000 -0.065548 -0.000000
v 0.056766 -0.032774 -0.000000
v 0.049161 -0.032774 0.028383
v 0.063314 0.000000 -0.016965
v 0.031657 -0.056766 0.008482
v 0.063314 0.000000 0.016965
v 0.023175 -0.056766 0.023175
v 0.050974 -0.033387 0.028869
v 0.065127 -0.000614 0.017451
v 0.058579 -0.033387 0.000486
v 0.024356 -0.058194 0.023857
v 0.050342 -0.034201 0.029065
v 0.032838 -0.058194 0.009165
v -0.000000 0.065548 -0.000000
v 0.049161 0.032774 0.028383
v 0.028383 0.032774 0.049161
v 0.023175 0.056766 0.023175
v 0.008482 0.056766 0.031657
v 0.029710 0.033387 0.050488
v 0.047676 0.000614 0.047676
v 0.050488 0.033387 0.029710
v 0.009165 0.058194 0.032838
v 0.029065 0.034201 0.050342
v 0.023857 0.058194 0.024356
v -0.000000 -0.065548 -0.000000
v 0.049161 -0.032774 0.028383
v 0.028383 -0.032774 0.049161
v 0.063314 0.000000 0.016965
v 0.023175 -0.056766 0.023175
v 0.046349 0.000000 0.046349
v 0.008482 -0.056766 0.031657
v 0.029710 -0.033387 0.050488
v 0.047676 -0.000614 0.047676
v 0.050488 -0.033387 0.029710
v 0.009165 -0.058194 0.032838
v 0.029065 -0.034201 0.050342
v 0.023857 -0.058194 0.024356
vn 0.0000 0.9636 0.2673
vn 0.4903 0.1959 0.8492
vn 0.1905 0.6768 0.7111
vn 0.2460 0.3108 0.9181
vn -0.8571 -0.3726 0.3558
vn 0.9202 -0.3726 -0.1204
vn -0.0804 0.9505 -0.3002
vn 0.0000 0.7230 0.6908
vn -0.9714 -0.1639 0.1716
vn 0.9714 -0.1639 0.1716
vn -0.0000 0.6908 -0.7230
vn 0.0000 -0.9636 0.2673
vn 0.4903 -0.1959 0.8492
vn 0.1905 -0.6768 0.7111
vn 0.2460 -0.3108 0.9181
vn -0.8571 0.3726 0.3558
vn 0.9202 0.3726 -0.1204
vn -0.0804 -0.9505 -0.3002
vn 0.0000 -0.7230 0.6908
vn -0.9714 0.1639 0.1716
vn 0.9714 0.1639 0.1716
vn -0.0000 -0.6908 -0.7230
vn -0.1337 0.9636 0.2315
vn 0.0000 0.1959 0.9806
vn -0.1905 0.6768 0.7111
vn -0.2460 0.3108 0.9181
vn -0.9202 -0.3726 -0.1204
vn 0.8571 -0.3726 0.3558
vn 0.0804 0.9505 -0.3002
vn -0.3454 0.7230 0.5983
vn -0.9271 -0.1639 -0.3372
vn 0.7555 -0.1639 0.6343
vn 0.3615 0.6908 -0.6261
vn -0.1337 -0.9636 0.2315
vn 0.0000 -0.1959 0.9806
vn -0.1905 -0.6768 0.7111
vn -0.2460 -0.3108 0.9181
vn -0.9202 0.3726 -0.1204
vn 0.8571 0.3726 0.3558
vn 0.0804 -0.9505 -0.3002
vn -0.3454 -0.7230 0.5983
vn -0.9271 0.1639 -0.3372
vn 0.7555 0.1639 0.6343
vn 0.3615 -0.6908 -0.6261
vn -0.2315 0.9636 0.1337
vn -0.4903 0.1959 0.8492
vn -0.5205 0.6768 0.5205
vn -0.6721 0.3108 0.6721
vn -0.7367 -0.3726 -0.5644
vn 0.5644 -0.3726 0.7367
vn 0.2198 0.9505 -0.2198
vn -0.5983 0.7230 0.3454
vn -0.6343 -0.1639 -0.7555
vn 0.3372 -0.1639 0.9271
vn 0.6261 0.6908 -0.3615
vn -0.2315 -0.9636 0.1337
vn -0.4903 -0.1959 0.8492
vn -0.5205 -0.6768 0.5205
vn -0.6721 -0.3108 0.6721
vn -0.7367 0.3726 -0.5644
vn 0.5644 0.3726 0.7367
vn 0.2198 -0.9505 -0.2198
vn -0.5983 -0.7230 0.3454
vn -0.6343 0.1639 -0.7555
vn 0.3372 0.1639 0.9271
vn 0.6261 -0.6908 -0.3615
vn -0.2673 0.9636 0.0000
vn -0.8492 0.1959 0.4903
vn -0.7111 0.6768 0.1905
vn -0.9181 0.3108 0.2460
vn -0.3558 -0.3726 -0.8571
vn 0.1204 -0.3726 0.9202
vn 0.3002 0.9505 -0.0804
vn -0.6908 0.7230 0.0000
vn -0.1716 -0.1639 -0.9714
vn -0.1716 -0.1639 0.9714
vn 0.7230 0.6908 -0.0000
vn -0.2673 -0.9636 0.0000
vn -0.8492 -0.1959 0.4903
vn -0.7111 -0.6768 0.1905
vn -0.9181 -0.3108 0.2460
vn -0.3558 0.3726 -0.8571
vn 0.1204 0.3726 0.9202
vn 0.3002 -0.9505 -0.0804
vn -0.6908 -0.7230 0.0000
vn -0.1716 0.1639 -0.9714
vn -0.1716 0.1639 0.9714
vn 0.7230 -0.6908 -0.0000
vn -0.2315 0.9636 -0.1337
vn -0.9806 0.1959 0.0000
vn -0.7111 0.6768 -0.1905
vn -0.9181 0.3108 -0.2460
vn 0.1204 -0.3726 -0.9202
vn -0.3558 -0.3726 0.8571
vn 0.3002 0.9505 0.0804
vn -0.5983 0.7230 -0.3454
vn 0.3372 -0.1639 -0.9271
vn -0.6343 -0.1639 0.7555
vn 0.6261 0.6908 0.3615
vn -0.2315 -0.9636 -0.1337
vn -0.9806 -0.1959 0.0000
vn -0.7111 -0.6768 -0.1905
vn -0.9181 -0.3108 -0.2460
vn 0.1204 0.3726 -0.9202
vn -0.3558 0.3726 0.8571
vn 0.3002 -0.9505 0.0804
vn -0.5983 -0.7230 -0.3454
vn 0.3372 0.1639 -0.9271
vn -0.6343 0.1639 0.7555
vn 0.6261 -0.6908 0.3615
vn -0.1337 0.9636 -0.2315
vn -0.8492 0.1959 -0.4903
vn -0.5205 0.6768 -0.5205
vn -0.6721 0.3108 -0.6721
vn 0.5644 -0.3726 -0.7367
vn -0.7367 -0.3726 0.5644
vn 0.2198 0.9505 0.2198
vn -0.3454 0.7230 -0.5983
vn 0.7555 -0.1639 -0.6343
vn -0.9271 -0.1639 0.3372
vn 0.3615 0.6908 0.6261
vn -0.1337 -0.9636 -0.2315
vn -0.8492 -0.1959 -0.4903
vn -0.5205 -0.6768 -0.5205
vn -0.6721 -0.3108 -0.6721
vn 0.5644 0.3726 -0.7367
vn -0.7367 0.3726 0.5644
vn 0.2198 -0.9505 0.2198
vn -0.3454 -0.7230 -0.5983
vn 0.7555 0.1639 -0.6343
vn -0.9271 0.1639 0.3372
vn 0.3615 -0.6908 0.6261
vn -0.0000 0.9636 -0.2673
vn -0.4903 0.1959 -0.8492
vn -0.1905 0.6768 -0.7111
vn -0.2460 0.3108 -0.9181
vn 0.8571 -0.3726 -0.3558
vn -0.9202 -0.3726 0.1204
vn 0.0804 0.9505 0.3002
vn -0.0000 0.7230 -0.6908
vn 0.9714 -0.1639 -0.1716
vn -0.9714 -0.1639 -0.1716
vn 0.0000 0.6908 0.7230
vn -0.0000 -0.9636 -0.2673
vn -0.4903 -0.1959 -0.8492
vn -0.1905 -0.6768 -0.7111
vn -0.2460 -0.3108 -0.9181
vn 0.8571 0.3726 -0.3558
vn -0.9202 0.3726 0.1204
vn 0.0804 -0.9505 0.3002
vn -0.0000 -0.7230 -0.6908
vn 0.9714 0.1639 -0.1716
vn -0.9714 0.1639 -0.1716
vn 0.0000 -0.6908 0.7230
vn 0.1337 0.9636 -0.2315
vn 0.0000 0.1959 -0.9806
vn 0.1905 0.6768 -0.7111
vn 0.2460 0.3108 -0.9181
vn 0.9202 -0.3726 0.1204
vn -0.8571 -0.3726 -0.3558
vn -0.0804 0.9505 0.3002
vn 0.3454 0.7230 -0.5983
vn 0.9271 -0.1639 0.3372
vn -0.7555 -0.1639 -0.6343
vn -0.3615 0.6908 0.6261
vn 0.1337 -0.9636 -0.2315
vn 0.0000 -0.1959 -0.9806
vn 0.1905 -0.6768 -0.7111
vn 0.2460 -0.3108 -0.9181
vn 0.9202 0.3726 0.1204
vn -0.8571 0.3726 -0.3558
vn -0.0804 -0.9505 0.3002
vn 0.3454 -0.7230 -0.5983
vn 0.9271 0.1639 0.3372
vn -0.7555 0.1639 -0.6343
vn -0.3615 -0.6908 0.6261
vn 0.2315 0.9636 -0.1337
vn 0.4903 0.1959 -0.8492
vn 0.5205 0.6768 -0.5205
vn 0.6721 0.3108 -0.6721
vn 0.7367 -0.3726 0.5644
vn -0.5644 -0.3726 -0.7367
vn -0.2198 0.9505 0.2198
vn 0.5983 0.7230 -0.3454
vn 0.6343 -0.1639 0.7555
vn -0.3372 -0.1639 -0.9271
vn -0.6261 0.6908 0.3615
vn 0.2315 -0.9636 -0.1337
vn 0.4903 -0.1959 -0.8492
vn 0.5205 -0.6768 -0.5205
vn 0.6721 -0.3108 -0.6721
vn 0.7367 0.3726 0.5644
vn -0.5644 0.3726 -0.7367
vn -0.2198 -0.9505 0.2198
vn 0.5983 -0.7230 -0.3454
vn 0.6343 0.1639 0.7555
vn -0.3372 0.1639 -0.9271
vn -0.6261 -0.6908 0.3615
vn 0.2673 0.9636 0.0000
vn 0.8492 0.1959 -0.4903
vn 0.7111 0.6768 -0.1905
vn 0.9181 0.3108 -0.2460
vn 0.3558 -0.3726 0.8571
vn -0.1204 -0.3726 -0.9202
vn -0.3002 0.9505 0.0804
vn 0.6908 0.7230 -0.0000
vn 0.1716 -0.1639 0.9714
vn 0.1716 -0.1639 -0.9714
vn -0.7230 0.6908 0.0000
vn 0.2673 -0.9636 0.0000
vn 0.8492 -0.1959 -0.4903
vn 0.7111 -0.6768 -0.1905
vn 0.9181 -0.3108 -0.2460
vn 0.3558 0.3726 0.8571
vn -0.1204 0.3726 -0.9202
vn -0.3002 -0.9505 0.0804
vn 0.6908 -0.7230 -0.0000
vn 0.1716 0.1639 0.9714
vn 0.1716 0.1639 -0.9714
vn -0.7230 -0.6908 0.0000
vn 0.2315 0.9636 0.1337
vn 0.9806 0.1959 0.0000
vn 0.7111 0.6768 0.1905
vn 0.9181 0.3108 0.2460
vn -0.1204 -0.3726 0.9202
vn 0.3558 -0.3726 -0.8571
vn -0.3002 0.9505 -0.0804
vn 0.5983 0.7230 0.3454
vn -0.3372 -0.1639 0.9271
vn 0.6343 -0.1639 -0.7555
vn -0.6261 0.6908 -0.3615
vn 0.2315 -0.9636 0.1337
vn 0.9806 -0.1959 0.0000
vn 0.7111 -0.6768 0.1905
vn 0.9181 -0.3108 0.2460
vn -0.1204 0.3726 0.9202
vn 0.3558 0.3726 -0.8571
vn -0.3002 -0.9505 -0.0804
vn 0.5983 -0.7230 0.3454
vn -0.3372 0.1639 0.9271
vn 0.6343 0.1639 -0.7555
vn -0.6261 -0.6908 -0.3615
vn 0.1337 0.9636 0.2315
vn 0.8492 0.1959 0.4903
vn 0.5205 0.6768 0.5205
vn 0.6721 0.3108 0.6721
vn -0.5644 -0.3726 0.7367
vn 0.7367 -0.3726 -0.5644
vn -0.2198 0.9505 -0.2198
vn 0.3454 0.7230 0.5983
vn -0.7555 -0.1639 0.6343
vn 0.9271 -0.1639 -0.3372
vn -0.3615 0.6908 -0.6261
vn 0.1337 -0.9636 0.2315
vn 0.8492 -0.1959 0.4903
vn 0.5205 -0.6768 0.5205
vn 0.6721 -0.3108 0.6721
vn -0.5644 0.3726 0.7367
vn 0.7367 0.3726 -0.5644
vn -0.2198 -0.9505 -0.2198
vn 0.3454 -0.7230 0.5983
vn -0.7555 0.1639 0.6343
vn 0.9271 0.1639 -0.3372
vn -0.3615 -0.6908 -0.6261
usemtl None
s off
f 4//1 1//1 5//1
f 17//2 15//2 2//2
f 3//3 2//3 4//3
f 6//4 7//4 8//4
f 17//5 7//5 6//5 3//5
f 2//6 8//6 7//6 17//6
f 3//7 6//7 8//7 2//7
f 9//8 10//8 11//8
f 3//9 10//9 9//9 5//9
f 4//10 11//10 10//10 3//10
f 5//11 9//11 11//11 4//11
f 16//12 18//12 12//12
f 17//13 13//13 15//13
f 14//14 16//14 13//14
f 19//15 21//15 20//15
f 17//16 14//16 19//16 20//16
f 13//17 17//17 20//17 21//17
f 14//18 13//18 21//18 19//18
f 22//19 24//19 23//19
f 14//20 18//20 22//20 23//20
f 16//21 14//21 23//21 24//21
f 18//22 16//22 24//22 22//22
f 28//23 25//23 29//23
f 41//24 39//24 26//24
f 27//25 26//25 28//25
f 30//26 31//26 32//26
f 41//27 31//27 30//27 27//27
f 26//28 32//28 31//28 41//28
f 27//29 30//29 32//29 26//29
f 33//30 34//30 35//30
f 27//31 34//31 33//31 29//31
f 28//32 35//32 34//32 27//32
f 29//33 33//33 35//33 28//33
f 40//34 42//34 36//34
f 41//35 37//35 39//35
f 38//36 40//36 37//36
f 43//37 45//37 44//37
f 41//38 38//38 43//38 44//38
f 37//39 41//39 44//39 45//39
f 38//40 37//40 45//40 43//40
f 46//41 48//41 47//41
f 38//42 42//42 46//42 47//42
f 40//43 38//43 47//43 48//43
f 42//44 40//44 48//44 46//44
f 52//45 49//45 53//45
f 65//46 63//46 50//46
f 51//47 50//47 52//47
f 54//48 55//48 56//48
f 65//49 55//49 54//49 51//49
f 50//50 56//50 55//50 65//50
f 51//51 54//51 56//51 50//51
f 57//52 58//52 59//52
f 51//53 58//53 57//53 53//53
f 52//54 59//54 58//54 51//54
f 53//55 57//55 59//55 52//55
f 64//56 66//56 60//56
f 65//57 61//57 63//57
f 62//58 64//58 61//58
f 67//59 69//59 68//59
f 65//60 62//60 67//60 68//60
f 61//61 65//61 68//61 69//61
f 62//62 61//62 69//62 67//62
f 70//63 72//63 71//63
f 62//64 66//64 70//64 71//64
f 64//65 62//65 71//65 72//65
f 66//66 64//66 72//66 70//66
f 76//67 73//67 77//67
f 89//68 87//68 74//68
f 75//69 74//69 76//69
f 78//70 79//70 80//70
f 89//71 79//71 78//71 75//71
f 74//72 80//72 79//72 89//72
f 75//73 78//73 80//73 74//73
f 81//74 82//74 83//74
f 75//75 82//75 81//75 77//75
f 76//76 83//76 82//76 75//76
f 77//77 81//77 83//77 76//77
f 88//78 90//78 84//78
f 89//79 85//79 87//79
f 86//80 88//80 85//80
f 91//81 93//81 92//81
f 89//82 86//82 91//82 92//82
f 85//83 89//83 92//83 93//83
f 86//84 85//84 93//84 91//84
f 94//85 96//85 95//85
f 86//86 90//86 94//86 95//86
f 88//87 86//87 95//87 96//87
f 90//88 88//88 96//88 94//88
f 100//89 97//89 101//89
f 113//90 111//90 98//90
f 99//91 98//91 100//91
f 102//92 103//92 104//92
f 113//93 103//93 102//93 99//93
f 98//94 104//94 103//94 113//94
f 99//95 102//95 104//95 98//95
f 105//96 106//96 107//96
f 99//97 106//97 105//97 101//97
f 100//98 107//98 106//98 99//98
f 101//99 105//99 107//99 100//99
f 112//100 114//100 108//100
f 113//101 109//101 111//101
f 110//102 112//102 109//102
f 115//103 117//103 116//103
f 113//104 110//104 115//104 116//104
f 109//105 113//105 116//105 117//105
f 110//106 109//106 117//106 115//106
f 118//107 120//107 119//107
f 110//108 114//108 118//108 119//108
f 112//109 110//109 119//109 120//109
f 114//110 112//110 120//110 118//110
f 124//111 121//111 125//111
f 137//112 135//112 122//112
f 123//113 122//113 124//113
f 126//114 127//114 128//114
f 137//115 127//115 126//115 123//115
f 122//116 128//116 127//116 137//116
f 123//117 126//117 128//117 122//117
f 129//118 130//118 131//118
f 123//119 130//119 129//119 125//119
f 124//120 131//120 130//120 123//120
f 125//121 129//121 131//121 124//121
f 136//122 138//122 132//122
f 137//123 133//123 135//123
f 134//124 136//124 133//124
f 139//125 141//125 140//125
f 137//126 134//126 139//126 140//126
f 133//127 137//127 140//127 141//127
f 134//128 133//128 141//128 139//128
f 142//129 144//129 143//129
f 134//130 138//130 142//130 143//130
f 136//131 134//131 143//131 144//131
f 138//132 136//132 144//132 142//132
f 148//133 145//133 149//133
f 161//134 159//134 146//134
f 147//135 146//135 148//135
f 150//136 151//136 152//136
f 161//137 151//137 150//137 147//137
f 146//138 152//138 151//138 161//138
f 147//139 150//139 152//139 146//139
f 153//140 154//140 155//140
f 147//141 154//141 153//141 149//141
f 148//142 155//142 154//142 147//142
f 149//143 153//143 155//143 148//143
f 160//144 162//144 156//144
f 161//145 157//145 159//145
f 158//146 160//146 157//146
f 163//147 165//147 164//147
f 161//148 158//148 163//148 164//148
f 157//149 161//149 164//149 165//149
f 158//150 157//150 165//150 163//150
f 166//151 168//151 167//151
f 158//152 162//152 166//152 167//152
f 160//153 158//153 167//153 168//153
f 162//154 160//154 168//154 166//154
f 172//155 169//155 173//155
f 185//156 183//156 170//156
f 171//157 170//157 172//157
f 174//158 175//158 176//158
f 185//159 175//159 174//159 171//159
f 170//160 176//160 175//160 185//160
f 171//161 174//161 176//161 170//161
f 177//162 178//162 179//162
f 171//163 178//163 177//163 173//163
f 172//164 179//164 178//164 171//164
f 173//165 177//165 179//165 172//165
f 184//166 186//166 180//166
f 185//167 181//167 183//167
f 182//168 184//168 181//168
f 187//169 189//169 188//169
f 185//170 182//170 187//170 188//170
f 181//171 185//171 188//171 189//171
f 182//172 181//172 189//172 187//172
f 190//173 192//173 191//173
f 182//174 186//174 190//174 191//174
f 184//175 182//175 191//175 192//175
f 186//176 184//176 192//176 190//176
f 196//177 193//177 197//177
f 209//178 207//178 194//178
f 195//179 194//179 196//179
f 198//180 199//180 200//180
f 209//181 199//181 198//181 195//181
f 194//182 200//182 199//182 209//182
f 195//183 198//183 200//183 194//183
f 201//184 202//184 203//184
f 195//185 202//185 201//185 197//185
f 196//186 203//186 202//186 195//186
f 197//187 201//187 203//187 196//187
f 208//188 210//188 204//188
f 209//189 205//189 207//189
f 206//190 208//190 205//190
f 211//191 213//191 212//191
f 209//192 206//192 211//192 212//192
f 205//193 209//193 212//193 213//193
f 206//194 205//194 213//194 211//194
f 214//195 216//195 215//195
f 206//196 210//196 214//196 215//196
f 208//197 206//197 215//197 216//197
f 210//198 208//198 216//198 214//198
f 220//199 217//199 221//199
f 233//200 231//200 218//200
f 219//201 218//201 220//201
f 222//202 223//202 224//202
f 233//203 223//203 222//203 219//203
f 218//204 224//204 223//204 233//204
f 219//205 222//205 224//205 218//205
f 225//206 226//206 227//206
f 219//207 226//207 225//207 221//207
f 220//208 227//208 226//208 219//208
f 221//209 225//209 227//209 220//209
f 232//210 234//210 228//210
f 233//211 229//211 231//211
f 230//212 232//212 229//212
f 235//213 237//213 236//213
f 233//214 230//214 235//214 236//214
f 229//215 233//215 236//215 237//215
f 230//216 229//216 237//216 235//216
f 238//217 240//217 239//217
f 230//218 234//218 238//218 239//218
f 232//219 230//219 239//219 240//219
f 234//220 232//220 240//220 238//220
f 244//221 241//221 245//221
f 257//222 255//222 242//222
f 243//223 242//223 244//223
f 246//224 247//224 248//224
f 257//225 247//225 246//225 243//225
f 242//226 248//226 247//226 257//226
f 243//227 246//227 248//227 242//227
f 249//228 250//228 251//228
f 243//229 250//229 249//229 245//229
f 244//230 251//230 250//230 243//230
f 245//231 249//231 251//231 244//231
f 256//232 258//232 252//232
f 257//233 253//233 255//233
f 254//234 256//234 253//234
f 259//235 261//235 260//235
f 257//236 254//236 259//236 260//236
f 253//237 257//237 260//237 261//237
f 254//238 253//238 261//238 259//238
f 262//239 264//239 263//239
f 254//240 258//240 262//240 263//240
f 256//241 254//241 263//241 264//241
f 258//242 256//242 264//242 262//242
f 268//243 265//243 269//243
f 281//244 279//244 266//244
f 267//245 266//245 268//245
f 270//246 271//246 272//246
f 281//247 271//247 270//247 267//247
f 266//248 272//248 271//248 281//248
f 267//249 270//249 272//249 266//249
f 273//250 274//250 275//250
f 267//251 274//251 273//251 269//251
f 268//252 275//252 274//252 267//252
f 269//253 273//253 275//253 268//253
f 280//254 282//254 276//254
f 281//255 277//255 279//255
f 278//256 280//256 277//256
f 283//257 285//257 284//257
f 281//258 278//258 283//258 284//258
f 277//259 281//259 284//259 285//259
f 278//260 277//260 285//260 283//260
f 286//261 288//261 287//261
f 278//262 282//262 286//262 287//262
f 280//263 278//263 287//263 288//263
f 282//264 280//264 288//264 286//264
